<?xml version="1.0" encoding="utf-8"?>
<!-- Generator: Adobe Illustrator 27.5.0, SVG Export Plug-In . SVG Version: 6.00 Build 0)  -->
<svg version="1.1" xmlns="http://www.w3.org/2000/svg" xmlns:xlink="http://www.w3.org/1999/xlink" x="0px" y="0px"
	 viewBox="0 0 750 500" style="enable-background:new 0 0 750 500;" xml:space="preserve">
<g id="BACKGROUND">
	<rect style="fill:#FFFFFF;" width="750" height="500"/>
</g>
<g id="OBJECTS">
	<g>
		<g>
			<g>
				<path style="fill:none;stroke:#CEDBED;stroke-width:2.0698;stroke-miterlimit:10;" d="M622.305,172.159
					c6.919,3.692,13.519,8.145,19.653,13.559c19.001,16.771,31.76,41.695,35.926,70.181"/>
				<path style="fill:none;stroke:#CEDBED;stroke-width:2.0698;stroke-miterlimit:10;" d="M67.621,417.724
					c-14.27-27.983-10.223-50.84-6.905-69.58c0.706-3.985,1.371-7.74,1.862-11.378"/>
				<path style="fill:none;stroke:#CEDBED;stroke-width:2.0698;stroke-miterlimit:10;" d="M603.483,170.448
					c12.463,4.464,24.236,10.705,34.504,19.769c17.939,15.835,29.999,39.47,33.96,66.551"/>
				<path style="fill:none;stroke:#CEDBED;stroke-width:2.0698;stroke-miterlimit:10;" d="M74.406,417.725
					c-15.064-27.403-11.21-49.169-7.781-68.536c1.725-9.739,3.294-18.601,2.602-27.918"/>
				<path style="fill:none;stroke:#CEDBED;stroke-width:2.0698;stroke-miterlimit:10;" d="M586.388,171.613
					c17.418,4.306,34.048,11.114,47.628,23.102c18.492,16.323,28.382,39.381,31.86,62.033"/>
				<path style="fill:none;stroke:#CEDBED;stroke-width:2.0698;stroke-miterlimit:10;" d="M81.313,417.724
					c-15.964-26.914-12.314-47.529-8.78-67.489c2.649-14.961,5.151-29.092-0.829-45.968"/>
			</g>
			<path style="fill:#CEDBED;" d="M88.36,417.722h574c0,0,0-21.937-11-45.032s-12-30.819,2-57.956
				c14-27.138,11.371-84.904-23.314-115.521c-34.686-30.617-91.037-25.549-129.862-35.083
				c-38.824-9.534-163.157-72.867-192.991-84.701C277.36,67.596,215.86,65.221,176.98,118.596
				c-17.214,23.632-37.692,62.71-70.16,80.733c-38.306,21.264-44.46,60.602-29.46,102.935
				C92.36,344.596,58.36,370.847,88.36,417.722z"/>
		</g>
		<g>
			<linearGradient id="SVGID_1_" gradientUnits="userSpaceOnUse" x1="99.6146" y1="256.9651" x2="142.1146" y2="349.4649">
				<stop  offset="0" style="stop-color:#6AB883"/>
				<stop  offset="1" style="stop-color:#DBB883"/>
			</linearGradient>
			<path style="fill:url(#SVGID_1_);" d="M140.545,349.553c0,0-0.254-14.823,3.382-28.955c6.667-25.908-5.667-56.333-33.167-40.333
				c-16.104,9.37-17.666,32.643-4.833,48.796C117.344,343.432,140.545,349.553,140.545,349.553z"/>
			<path style="fill:none;stroke:#1656BD;stroke-width:0.9394;stroke-miterlimit:10;" d="M117.344,294.69
				c0,0,17.5,39.992,28.75,68.742"/>
			<polyline style="fill:none;stroke:#1656BD;stroke-width:0.9394;stroke-miterlimit:10;" points="138.427,301.932 135.76,314.932 
				132.427,306.432 			"/>
			
				<line style="fill:none;stroke:#1656BD;stroke-width:0.9394;stroke-miterlimit:10;" x1="135.76" y1="314.932" x2="136.133" y2="338.818"/>
			<polyline style="fill:none;stroke:#1656BD;stroke-width:0.9394;stroke-miterlimit:10;" points="131.518,327.775 121.094,317.265 
				112.26,315.432 			"/>
			
				<line style="fill:none;stroke:#1656BD;stroke-width:0.9394;stroke-miterlimit:10;" x1="118.594" y1="311.432" x2="121.094" y2="317.265"/>
			
				<line style="fill:none;stroke:#1656BD;stroke-width:0.9394;stroke-miterlimit:10;" x1="123.677" y1="285.765" x2="123.29" y2="308.432"/>
		</g>
		<g>
			
				<linearGradient id="SVGID_00000021803713986226061790000005358698155949779628_" gradientUnits="userSpaceOnUse" x1="156.5549" y1="213.8491" x2="174.0548" y2="292.3492">
				<stop  offset="0" style="stop-color:#6AB883"/>
				<stop  offset="1" style="stop-color:#DBB883"/>
			</linearGradient>
			<path style="fill:url(#SVGID_00000021803713986226061790000005358698155949779628_);" d="M173.627,284.083
				c0,0-14.666-6.823-20.166-17.737c-5.5-10.914-4.5-28.631,7.5-33.147c12-4.516,19.248,7.48,19,18.817
				C179.738,262.192,173.627,284.083,173.627,284.083z"/>
			<path style="fill:none;stroke:#1656BD;stroke-width:0.9394;stroke-miterlimit:10;" d="M164.288,243.907
				c0,0,7.5,32.962,13.167,56.066"/>
			
				<line style="fill:none;stroke:#1656BD;stroke-width:0.9394;stroke-miterlimit:10;" x1="167.961" y1="237.949" x2="166.461" y2="253.388"/>
			<polyline style="fill:none;stroke:#1656BD;stroke-width:0.9394;stroke-miterlimit:10;" points="154.836,255.932 160.961,259.931 
				170.364,270.224 			"/>
			
				<line style="fill:none;stroke:#1656BD;stroke-width:0.9394;stroke-miterlimit:10;" x1="159.211" y1="250.807" x2="160.961" y2="259.931"/>
			
				<line style="fill:none;stroke:#1656BD;stroke-width:0.9394;stroke-miterlimit:10;" x1="174.086" y1="259.306" x2="171.48" y2="274.986"/>
		</g>
		<g>
			
				<linearGradient id="SVGID_00000013165794408585352490000014627214306100272019_" gradientUnits="userSpaceOnUse" x1="106.8201" y1="373.8851" x2="139.2878" y2="373.8851">
				<stop  offset="0" style="stop-color:#6AB883"/>
				<stop  offset="1" style="stop-color:#DBB883"/>
			</linearGradient>
			<path style="fill:url(#SVGID_00000013165794408585352490000014627214306100272019_);" d="M110.585,360.556
				c5.076-5.971,14.126-4.749,20.554,2.519c6.428,7.268,8.149,27.943,8.149,27.943s-17.491-0.987-26.671-8.221
				S107.067,364.695,110.585,360.556z"/>
			<path style="fill:none;stroke:#1656BD;stroke-width:0.9394;stroke-miterlimit:10;" d="M147.283,399.207
				c0,0-22.991-23.551-31.186-31.928"/>
			<polyline style="fill:none;stroke:#1656BD;stroke-width:0.9394;stroke-miterlimit:10;" points="123.465,366.249 127.656,371.456 
				131.695,383.243 			"/>
			
				<line style="fill:none;stroke:#1656BD;stroke-width:0.9394;stroke-miterlimit:10;" x1="127.806" y1="366.606" x2="127.656" y2="371.456"/>
			<path style="fill:none;stroke:#1656BD;stroke-width:0.9394;stroke-miterlimit:10;" d="M123.266,374.613
				c0,0-3.562,0.806-10.537-1.464"/>
		</g>
		<g>
			
				<linearGradient id="SVGID_00000145046666129247286130000007172977199411364249_" gradientUnits="userSpaceOnUse" x1="609.6845" y1="378.8163" x2="649.5714" y2="378.8163">
				<stop  offset="0" style="stop-color:#6AB883"/>
				<stop  offset="1" style="stop-color:#DBB883"/>
			</linearGradient>
			<path style="fill:url(#SVGID_00000145046666129247286130000007172977199411364249_);" d="M649.259,373.607
				c-1.718-7.647-10.298-10.772-19.368-7.326c-9.07,3.446-20.206,20.95-20.206,20.95s15.944,7.259,27.436,5.122
				C648.612,390.216,650.45,378.906,649.259,373.607z"/>
			<path style="fill:none;stroke:#1656BD;stroke-width:0.9394;stroke-miterlimit:10;" d="M586.457,394.683
				c0,0,43.646-14.081,54.795-17.687"/>
			<polyline style="fill:none;stroke:#1656BD;stroke-width:0.9394;stroke-miterlimit:10;" points="635.209,372.658 629.078,375.319 
				620.021,383.877 			"/>
			
				<line style="fill:none;stroke:#1656BD;stroke-width:0.9394;stroke-miterlimit:10;" x1="631.201" y1="370.956" x2="629.078" y2="375.319"/>
			<path style="fill:none;stroke:#1656BD;stroke-width:0.9394;stroke-miterlimit:10;" d="M631.496,380.156
				c0,0,2.779,2.37,10.01,3.603"/>
		</g>
		
			<linearGradient id="SVGID_00000013158677995380859980000006581540207845982640_" gradientUnits="userSpaceOnUse" x1="273.0495" y1="99.0551" x2="273.0495" y2="333.6477">
			<stop  offset="0" style="stop-color:#1656BD"/>
			<stop  offset="1" style="stop-color:#A1C1ED;stop-opacity:0"/>
		</linearGradient>
		<polygon style="opacity:0.81;fill:url(#SVGID_00000013158677995380859980000006581540207845982640_);" points="190.739,412.824 
			190.739,132.555 238.916,118.388 238.916,198.352 283.628,198.352 283.628,255.805 296.264,255.805 296.264,185.173 
			325.246,194.088 325.246,220.772 355.36,220.772 355.36,412.824 		"/>
		
			<linearGradient id="SVGID_00000134935827413107812010000012539769397636440232_" gradientUnits="userSpaceOnUse" x1="495.7417" y1="161.0551" x2="495.7417" y2="342.1198">
			<stop  offset="0" style="stop-color:#1656BD"/>
			<stop  offset="1" style="stop-color:#A1C1ED;stop-opacity:0"/>
		</linearGradient>
		<path style="fill:url(#SVGID_00000134935827413107812010000012539769397636440232_);" d="M387.997,417.404V233.022h12.361v-43.286
			h21.609v59.963h10.697v-44.644c0,0,25.804,5.288,30.5,25.644v37.363h15.054v-56.363h32.136v24.853h55.007v24.505l38.127,33.774
			v122.573H387.997z"/>
		<g>
			
				<linearGradient id="SVGID_00000154421240706746784380000006228282670554544295_" gradientUnits="userSpaceOnUse" x1="646.1346" y1="283.5471" x2="601.6348" y2="380.5469">
				<stop  offset="0" style="stop-color:#6AB883"/>
				<stop  offset="1" style="stop-color:#DBB883"/>
			</linearGradient>
			<path style="fill:url(#SVGID_00000154421240706746784380000006228282670554544295_);" d="M603.573,368.938
				c0,0,1.617-14.736-0.704-29.143c-4.255-26.412,10.824-55.573,36.736-37.111c15.174,10.811,14.588,34.129,0.324,49.034
				C627.239,364.976,603.573,368.938,603.573,368.938z"/>
			<path style="fill:none;stroke:#1656BD;stroke-width:0.9394;stroke-miterlimit:10;" d="M631.723,316.441
				c0,0-21.104,38.212-34.951,65.806"/>
			<polyline style="fill:none;stroke:#1656BD;stroke-width:0.9394;stroke-miterlimit:10;" points="610.063,321.713 611.522,334.903 
				615.623,326.746 			"/>
			
				<line style="fill:none;stroke:#1656BD;stroke-width:0.9394;stroke-miterlimit:10;" x1="611.522" y1="334.903" x2="608.954" y2="358.654"/>
			<polyline style="fill:none;stroke:#1656BD;stroke-width:0.9394;stroke-miterlimit:10;" points="614.565,348.082 625.912,338.576 
				634.876,337.563 			"/>
			
				<line style="fill:none;stroke:#1656BD;stroke-width:0.9394;stroke-miterlimit:10;" x1="628.938" y1="332.997" x2="625.912" y2="338.576"/>
			
				<line style="fill:none;stroke:#1656BD;stroke-width:0.9394;stroke-miterlimit:10;" x1="626.237" y1="306.972" x2="624.537" y2="329.578"/>
		</g>
		
			<linearGradient id="SVGID_00000090296704359735081270000013449008123815895967_" gradientUnits="userSpaceOnUse" x1="581.6699" y1="314.0747" x2="552.6699" y2="452.5745">
			<stop  offset="0" style="stop-color:#6AB883"/>
			<stop  offset="1" style="stop-color:#DBB883"/>
		</linearGradient>
		<path style="fill:url(#SVGID_00000090296704359735081270000013449008123815895967_);" d="M499.075,417.722H620.86
			c0,0-0.75-34.417-24.5-22.417c2.25-21.75,2-45.702-11.75-17.101c3-24.399,5.324-76.683-16-16.149c0,0,17.524-67.055,6.25-70.715
			c-10.75-3.49-27.574,63.215-27.574,63.215s2.311-42.609-10.682-41.993C524.06,313.156,499.075,417.722,499.075,417.722z"/>
		
			<linearGradient id="SVGID_00000060003292838960209670000005979933102828839094_" gradientUnits="userSpaceOnUse" x1="543.7563" y1="435.2368" x2="534.2343" y2="290.1635">
			<stop  offset="0.1597" style="stop-color:#187D38"/>
			<stop  offset="1" style="stop-color:#187D38;stop-opacity:0"/>
		</linearGradient>
		<path style="opacity:0.63;fill:url(#SVGID_00000060003292838960209670000005979933102828839094_);" d="M572.257,364.956
			c-10.846-8.382-20.308,6.594-20.308,6.594l-1.271-29.46c-2.098,7.336-3.392,12.465-3.392,12.465s2.311-42.609-10.682-41.993
			c-12.544,0.594-37.529,105.16-37.529,105.16h87.063C585.749,411.56,582.92,373.197,572.257,364.956z"/>
		<g>
			
				<linearGradient id="SVGID_00000165203869423424018660000008620122855230310587_" gradientUnits="userSpaceOnUse" x1="239.7007" y1="239.025" x2="239.7007" y2="467.3286">
				<stop  offset="0" style="stop-color:#6AB883"/>
				<stop  offset="1" style="stop-color:#DBB883"/>
			</linearGradient>
			<path style="fill:url(#SVGID_00000165203869423424018660000008620122855230310587_);" d="M127.943,417.228h223.515
				c0,0-2.585-163.16-7.8-162.917c-5.215,0.243-27.302,138.625-27.302,138.625s-17.076-57.852-26.244-56.31
				c-9.168,1.541-11.445,30.949-11.445,30.949s-12.588-142.262-51.155-142.262c-10.067,0-31.375,79.373-31.375,79.373
				s-2.573-57.084-8.692-56.305c-6.12,0.778-12.25,59.099-12.25,59.099s-8.25-24.834-16.25-24.918s3,88.988,3,88.988
				s-6-25.314-13.5-25.154s-3,47.854-3,47.854S127.943,400.402,127.943,417.228z"/>
			
				<linearGradient id="SVGID_00000086676484243322094780000007820928923660364939_" gradientUnits="userSpaceOnUse" x1="311.3962" y1="469.555" x2="311.3962" y2="247.9978">
				<stop  offset="0.1597" style="stop-color:#187D38"/>
				<stop  offset="1" style="stop-color:#187D38;stop-opacity:0"/>
			</linearGradient>
			<path style="opacity:0.63;fill:url(#SVGID_00000086676484243322094780000007820928923660364939_);" d="M351.458,417.228
				c0,0-2.585-163.16-7.8-162.917c-5.215,0.243-27.302,138.625-27.302,138.625s-13.258-44.912-22.682-54.533
				c-11.118,35.611-19.946,69.481-22.34,78.824H351.458z"/>
			
				<linearGradient id="SVGID_00000120543322672235451670000014149301810450334124_" gradientUnits="userSpaceOnUse" x1="434.7441" y1="254.3884" x2="434.7441" y2="449.2791">
				<stop  offset="0" style="stop-color:#6AB883"/>
				<stop  offset="1" style="stop-color:#DBB883"/>
			</linearGradient>
			<path style="fill:url(#SVGID_00000120543322672235451670000014149301810450334124_);" d="M286.711,417.722h296.065
				c0,0-19.289-59.333-36.311-36.667c-1.022-44-14.597-64.653-29.143-34.66c-4.546-52.673-14.046-102.49-62.296-78.582
				c-1.583-40.092-32.708-68.617-59.716,16.979c0,0,3.576-16.221-2.479-16.979c-6.055-0.758-10.965,31.831-10.965,31.831
				s1.297-34.416-13.563-29.169c-14.86,5.247-38.743,93.001-38.743,93.001s4.438-54.618-7.18-57.037
				C310.762,304.02,286.711,417.722,286.711,417.722z"/>
		</g>
		<g>
			<rect x="373.893" y="164.589" style="fill:#FFFFFF;" width="9.78" height="253.133"/>
			
				<linearGradient id="SVGID_00000088107829883467991470000006545170880595126924_" gradientUnits="userSpaceOnUse" x1="378.7832" y1="156.7217" x2="378.7832" y2="228.2221">
				<stop  offset="0.062" style="stop-color:#FF6026"/>
				<stop  offset="1" style="stop-color:#FF6026;stop-opacity:0"/>
			</linearGradient>
			<polygon style="fill:url(#SVGID_00000088107829883467991470000006545170880595126924_);" points="373.893,201.003 
				383.673,190.394 383.673,164.589 373.893,164.589 			"/>
			<rect x="308.033" y="105.618" style="fill:#FF6026;" width="141.5" height="65.111"/>
			<rect x="311.425" y="105.618" style="fill:#FFA526;" width="138.108" height="61.159"/>
			<g>
				<g>
					<path style="fill:#FFFFFF;" d="M356.514,147.189h-5.651v8.748h-4.18v-8.748h-18.245v-3.612l17.96-25.573h4.464v25.314h5.651
						V147.189z M346.683,143.318v-12.335c0-0.946,0.008-1.802,0.025-2.567c0.017-0.765,0.043-1.479,0.077-2.142
						s0.064-1.294,0.091-1.897c0.025-0.602,0.047-1.195,0.064-1.78h-0.207c-0.326,0.688-0.701,1.415-1.122,2.18
						c-0.422,0.766-0.848,1.45-1.277,2.052l-11.638,16.489H346.683z"/>
					<path style="fill:#FFFFFF;" d="M390.339,137.022c0,3.063-0.232,5.798-0.697,8.206c-0.464,2.409-1.195,4.447-2.193,6.116
						c-0.998,1.669-2.288,2.938-3.87,3.806c-1.583,0.869-3.484,1.303-5.703,1.303c-2.804,0-5.122-0.765-6.955-2.297
						c-1.832-1.531-3.199-3.746-4.103-6.645c-0.903-2.898-1.354-6.395-1.354-10.49c0-4.025,0.408-7.487,1.226-10.387
						c0.816-2.898,2.138-5.126,3.961-6.683s4.232-2.335,7.225-2.335c2.838,0,5.178,0.77,7.019,2.31s3.208,3.759,4.104,6.658
						C389.89,129.483,390.339,132.962,390.339,137.022z M369.773,137.022c0,3.509,0.266,6.434,0.8,8.774
						c0.533,2.339,1.397,4.09,2.593,5.251c1.196,1.161,2.766,1.742,4.709,1.742c1.943,0,3.514-0.576,4.709-1.729
						s2.064-2.899,2.606-5.239c0.542-2.339,0.813-5.272,0.813-8.799c0-3.458-0.267-6.352-0.8-8.684
						c-0.533-2.331-1.394-4.085-2.58-5.264c-1.188-1.178-2.771-1.768-4.748-1.768c-1.978,0-3.561,0.59-4.748,1.768
						c-1.188,1.179-2.043,2.934-2.568,5.264C370.034,130.67,369.773,133.564,369.773,137.022z"/>
					<path style="fill:#FFFFFF;" d="M427.518,147.189h-5.651v8.748h-4.18v-8.748h-18.244v-3.612l17.96-25.573h4.464v25.314h5.651
						V147.189z M417.687,143.318v-12.335c0-0.946,0.008-1.802,0.025-2.567c0.017-0.765,0.043-1.479,0.077-2.142
						s0.064-1.294,0.091-1.897c0.025-0.602,0.047-1.195,0.064-1.78h-0.207c-0.326,0.688-0.701,1.415-1.122,2.18
						c-0.422,0.766-0.848,1.45-1.277,2.052l-11.638,16.489H417.687z"/>
				</g>
			</g>
		</g>
		<g>
			<g style="opacity:0.22;">
				<g>
					
						<linearGradient id="SVGID_00000085249881372830884080000016860271347554796967_" gradientUnits="userSpaceOnUse" x1="217.7054" y1="153.0547" x2="212.7054" y2="206.3045">
						<stop  offset="0" style="stop-color:#000000;stop-opacity:0.7305"/>
						<stop  offset="0.2403" style="stop-color:#000000"/>
						<stop  offset="0.9315" style="stop-color:#000000;stop-opacity:0"/>
					</linearGradient>
					<path style="fill:url(#SVGID_00000085249881372830884080000016860271347554796967_);" d="M249.832,173.629l-14.055-8.288
						c1.031-12.583-7.063-24.474-19.697-27.792c-14.169-3.722-28.673,4.748-32.394,18.917c-3.722,14.169,4.748,28.673,18.917,32.394
						c12.659,3.325,25.578-3.085,30.843-14.593L249.832,173.629z"/>
				</g>
			</g>
			<path style="fill:#FFFFFF;" d="M249.832,170.349l-14.055-8.288c1.031-12.583-7.063-24.474-19.697-27.792
				c-14.169-3.722-28.673,4.748-32.394,18.917c-3.722,14.169,4.748,28.673,18.917,32.394c12.659,3.325,25.578-3.085,30.843-14.593
				L249.832,170.349z"/>
			<g>
				<path style="fill:#FF9D45;" d="M205.243,166.587v-1.472c0-1.274,0.272-2.382,0.816-3.324c0.544-0.941,1.539-1.943,2.985-3.005
					c1.393-0.996,2.312-1.805,2.756-2.428c0.444-0.624,0.666-1.32,0.666-2.09c0-0.863-0.318-1.519-0.955-1.971
					c-0.637-0.451-1.526-0.677-2.667-0.677c-1.99,0-4.259,0.65-6.807,1.951l-2.169-4.359c2.958-1.658,6.097-2.487,9.414-2.487
					c2.733,0,4.906,0.656,6.518,1.97c1.612,1.314,2.418,3.065,2.418,5.254c0,1.46-0.332,2.72-0.995,3.782s-1.924,2.256-3.781,3.582
					c-1.274,0.942-2.08,1.659-2.418,2.149c-0.339,0.491-0.508,1.135-0.508,1.93v1.194H205.243z M204.606,173.393
					c0-1.114,0.299-1.957,0.896-2.527c0.597-0.57,1.466-0.856,2.607-0.856c1.101,0,1.954,0.292,2.558,0.876
					c0.603,0.584,0.905,1.42,0.905,2.507c0,1.048-0.305,1.874-0.916,2.478c-0.61,0.604-1.46,0.906-2.547,0.906
					c-1.114,0-1.977-0.295-2.587-0.886C204.911,175.301,204.606,174.468,204.606,173.393z"/>
			</g>
		</g>
		<g>
			
				<linearGradient id="SVGID_00000067929134940817808930000009202312695977825411_" gradientUnits="userSpaceOnUse" x1="561.4001" y1="190.6372" x2="560.4" y2="308.9706">
				<stop  offset="0" style="stop-color:#000000"/>
				<stop  offset="0.9315" style="stop-color:#000000;stop-opacity:0"/>
			</linearGradient>
			<path style="opacity:0.45;fill:url(#SVGID_00000067929134940817808930000009202312695977825411_);" d="M588.599,218.749h-43.06
				c-3.603,0-6.523,2.921-6.523,6.523v11.566c0,1.493-0.548,2.934-1.54,4.049l-10.795,12.144c-0.099,0.112,0.022,0.28,0.159,0.221
				l10.161-4.355c0.953-0.408,2.014,0.291,2.014,1.328v0c0,3.603,2.921,6.523,6.523,6.523h43.06c3.603,0,6.523-2.921,6.523-6.523
				v-24.953C595.123,221.669,592.202,218.749,588.599,218.749z"/>
			<path style="fill:#FFFFFF;" d="M585.128,216.355h-43.06c-3.603,0-6.523,2.921-6.523,6.523v11.566
				c0,1.493-0.548,2.934-1.539,4.049l-10.795,12.144c-0.099,0.111,0.022,0.28,0.159,0.221l10.161-4.355
				c0.953-0.409,2.014,0.291,2.014,1.328l0,0c0,3.603,2.921,6.523,6.523,6.523h43.06c3.603,0,6.523-2.921,6.523-6.523v-24.953
				C591.652,219.275,588.731,216.355,585.128,216.355z"/>
			<g>
				<circle style="fill:#F04F4F;" cx="548.336" cy="235.355" r="2.394"/>
				<circle style="fill:#F04F4F;" cx="558.49" cy="235.355" r="2.394"/>
				<circle style="fill:#F04F4F;" cx="568.644" cy="235.355" r="2.394"/>
				<path style="fill:#F04F4F;" d="M581.192,235.355c0,1.322-1.072,2.394-2.394,2.394c-1.322,0-2.394-1.072-2.394-2.394
					c0-1.322,1.072-2.394,2.394-2.394C580.121,232.961,581.192,234.033,581.192,235.355z"/>
			</g>
		</g>
		<g>
			<ellipse style="fill:#CEDBED;" cx="210.14" cy="424.214" rx="45.137" ry="2.042"/>
			<g>
				<g>
					
						<rect x="237.53" y="266.125" transform="matrix(-1 -1.224647e-16 1.224647e-16 -1 479.6585 609.4996)" style="fill:#FFFFFF;" width="4.598" height="77.25"/>
					
						<rect x="201.662" y="266.125" transform="matrix(-1 -1.224647e-16 1.224647e-16 -1 407.9216 609.4996)" style="fill:#FFFFFF;" width="4.598" height="77.25"/>
				</g>
				
					<linearGradient id="SVGID_00000109716468006442732970000009961121324640814232_" gradientUnits="userSpaceOnUse" x1="221.895" y1="244.4573" x2="221.895" y2="281.59">
					<stop  offset="0" style="stop-color:#000000"/>
					<stop  offset="0.9315" style="stop-color:#000000;stop-opacity:0"/>
				</linearGradient>
				<path style="fill:url(#SVGID_00000109716468006442732970000009961121324640814232_);" d="M237.53,266.125h4.598v11.42
					l-4.598-0.497V266.125z M201.662,273.171l4.598,0.497v-7.543h-4.598V273.171z"/>
				<path style="fill:#0C3069;" d="M201.782,260.368h40.225c1.241,0,2.247,1.029,2.247,2.298v3.162c0,1.269-1.006,2.298-2.247,2.298
					h-6.829c-2.176,0-4.368-0.443-6.252-1.556c-1.785-1.055-4.273-1.71-7.031-1.71c-2.758,0-5.246,0.655-7.031,1.71
					c-1.884,1.113-4.076,1.556-6.252,1.556h-6.829c-1.241,0-2.247-1.029-2.247-2.297v-3.162
					C199.535,261.397,200.541,260.368,201.782,260.368z"/>
				<path style="fill:#1656BD;" d="M196.355,416.125h48.931c3.083,0,5.581-2.499,5.581-5.581v-91.129
					c0-3.083-2.499-5.582-5.581-5.582h-48.931c-3.083,0-5.582,2.499-5.582,5.582v91.129
					C190.774,413.626,193.272,416.125,196.355,416.125z"/>
				
					<line style="fill:none;stroke:#1656BD;stroke-width:0.9746;stroke-miterlimit:10;" x1="241.141" y1="313.833" x2="241.141" y2="416.125"/>
				<path style="fill:#236FE8;" d="M174.995,416.125h48.931c3.082,0,5.581-2.499,5.581-5.581v-91.129
					c0-3.083-2.499-5.582-5.581-5.582h-48.931c-3.083,0-5.582,2.499-5.582,5.582v91.129
					C169.413,413.626,171.912,416.125,174.995,416.125z"/>
				
					<line style="fill:none;stroke:#0C3069;stroke-width:0.9746;stroke-miterlimit:10;" x1="240.449" y1="313.833" x2="240.449" y2="416.125"/>
				<g>
					
						<linearGradient id="SVGID_00000029009334256156890860000008752304227605417642_" gradientUnits="userSpaceOnUse" x1="272.3907" y1="344.7546" x2="212.4931" y2="344.7546">
						<stop  offset="0" style="stop-color:#000000"/>
						<stop  offset="0.9315" style="stop-color:#000000;stop-opacity:0"/>
					</linearGradient>
					<polygon style="fill:url(#SVGID_00000029009334256156890860000008752304227605417642_);" points="236.521,346.51 
						244.377,346.51 244.377,343 236.521,343 					"/>
					
						<linearGradient id="SVGID_00000041975543934398628820000012708848742258911935_" gradientUnits="userSpaceOnUse" x1="272.3907" y1="388.7133" x2="212.4931" y2="388.7133">
						<stop  offset="0" style="stop-color:#000000"/>
						<stop  offset="0.9315" style="stop-color:#000000;stop-opacity:0"/>
					</linearGradient>
					<polygon style="fill:url(#SVGID_00000041975543934398628820000012708848742258911935_);" points="236.521,390.468 
						244.377,390.468 244.377,386.958 236.521,386.958 					"/>
				</g>
				<g>
					
						<rect x="236.521" y="341.245" transform="matrix(-1 -1.224647e-16 1.224647e-16 -1 480.8982 685.9992)" style="fill:#FFFFFF;" width="7.856" height="3.51"/>
					
						<rect x="236.521" y="385.203" transform="matrix(-1 -1.224647e-16 1.224647e-16 -1 480.8982 773.9166)" style="fill:#FFFFFF;" width="7.856" height="3.51"/>
				</g>
				<g style="opacity:0.56;">
					
						<linearGradient id="SVGID_00000163071336911364402580000012485866113677317299_" gradientUnits="userSpaceOnUse" x1="218.795" y1="295.8324" x2="218.795" y2="510.4461">
						<stop  offset="0" style="stop-color:#000000"/>
						<stop  offset="0.9315" style="stop-color:#000000;stop-opacity:0"/>
					</linearGradient>
					<path style="fill:url(#SVGID_00000163071336911364402580000012485866113677317299_);" d="M218.795,408.037L218.795,408.037
						c1.096,0,1.985-0.889,1.985-1.985v-81.097c0-1.096-0.889-1.985-1.985-1.985l0,0c-1.096,0-1.985,0.889-1.985,1.985v81.097
						C216.81,407.148,217.699,408.037,218.795,408.037z"/>
					
						<linearGradient id="SVGID_00000115493176871533994350000005417065581015069312_" gradientUnits="userSpaceOnUse" x1="205.9052" y1="295.8324" x2="205.9052" y2="510.4461">
						<stop  offset="0" style="stop-color:#000000"/>
						<stop  offset="0.9315" style="stop-color:#000000;stop-opacity:0"/>
					</linearGradient>
					<path style="fill:url(#SVGID_00000115493176871533994350000005417065581015069312_);" d="M205.905,408.037L205.905,408.037
						c1.096,0,1.985-0.889,1.985-1.985v-81.097c0-1.096-0.889-1.985-1.985-1.985l0,0c-1.096,0-1.985,0.889-1.985,1.985v81.097
						C203.92,407.148,204.809,408.037,205.905,408.037z"/>
					
						<linearGradient id="SVGID_00000092435459862782553120000012774690768069404051_" gradientUnits="userSpaceOnUse" x1="193.0154" y1="295.8324" x2="193.0154" y2="510.4461">
						<stop  offset="0" style="stop-color:#000000"/>
						<stop  offset="0.9315" style="stop-color:#000000;stop-opacity:0"/>
					</linearGradient>
					<path style="fill:url(#SVGID_00000092435459862782553120000012774690768069404051_);" d="M193.015,408.037L193.015,408.037
						c1.096,0,1.985-0.889,1.985-1.985v-81.097c0-1.096-0.889-1.985-1.985-1.985l0,0c-1.096,0-1.985,0.889-1.985,1.985v81.097
						C191.031,407.148,191.919,408.037,193.015,408.037z"/>
					
						<linearGradient id="SVGID_00000020384565085626604630000000778884819462937242_" gradientUnits="userSpaceOnUse" x1="180.1254" y1="295.8324" x2="180.1254" y2="510.4461">
						<stop  offset="0" style="stop-color:#000000"/>
						<stop  offset="0.9315" style="stop-color:#000000;stop-opacity:0"/>
					</linearGradient>
					<path style="fill:url(#SVGID_00000020384565085626604630000000778884819462937242_);" d="M180.126,408.037L180.126,408.037
						c1.096,0,1.985-0.889,1.985-1.985v-81.097c0-1.096-0.889-1.985-1.985-1.985l0,0c-1.096,0-1.985,0.889-1.985,1.985v81.097
						C178.141,407.148,179.029,408.037,180.126,408.037z"/>
				</g>
				<circle style="fill:#09244F;" cx="197.17" cy="420.646" r="4.083"/>
				<path style="fill:#09244F;" d="M172.931,420.646c0,2.255,1.828,4.083,4.083,4.083c2.255,0,4.083-1.828,4.083-4.083
					c0-2.255-1.828-4.083-4.083-4.083C174.759,416.563,172.931,418.391,172.931,420.646z"/>
				
					<rect x="177.014" y="415.958" transform="matrix(-1 -1.224647e-16 1.224647e-16 -1 420.0901 834.5829)" style="fill:#09244F;" width="66.062" height="2.667"/>
				
					<linearGradient id="SVGID_00000131327034741992268170000015234081879327044030_" gradientUnits="userSpaceOnUse" x1="215.8554" y1="292.8602" x2="190.0221" y2="363.5269">
					<stop  offset="0" style="stop-color:#000000"/>
					<stop  offset="0.9315" style="stop-color:#000000;stop-opacity:0"/>
				</linearGradient>
				<path style="opacity:0.43;fill:url(#SVGID_00000131327034741992268170000015234081879327044030_);" d="M174.995,313.833h21.36
					h27.571h21.36l-15.779,7.354l-60.094,42.287v-44.06C169.413,316.332,171.912,313.833,174.995,313.833z"/>
				<path style="fill:#0F3D85;" d="M238.951,420.646c0,2.255,1.828,4.083,4.083,4.083c2.255,0,4.083-1.828,4.083-4.083
					c0-2.255-1.828-4.083-4.083-4.083C240.779,416.563,238.951,418.391,238.951,420.646z"/>
				<circle style="fill:#0F3D85;" cx="222.878" cy="420.646" r="4.083"/>
				<circle style="fill:#FFA526;stroke:#0C3069;stroke-width:0.3266;stroke-miterlimit:10;" cx="222.878" cy="420.208" r="1.583"/>
				<path style="fill:#FFA526;stroke:#0C3069;stroke-width:0.3266;stroke-miterlimit:10;" d="M241.493,420.208
					c0,0.875,0.709,1.583,1.583,1.583c0.874,0,1.583-0.709,1.583-1.583c0-0.874-0.709-1.583-1.583-1.583
					C242.202,418.625,241.493,419.334,241.493,420.208z"/>
			</g>
		</g>
		<path style="fill:none;stroke:#0C3069;stroke-width:0.9394;stroke-miterlimit:10;" d="M139.193,346.241"/>
		<path style="fill:#A1C1ED;" d="M176.195,207.457c-13.899,0-74.042,0-86.775,0c-12.733,0-7.044-5.418,0-6.773
			c2.24-0.431,4.424-0.943,6.363-1.443c3.734-0.962,6.925-3.505,8.504-7.023c1.185-2.641,3.42-5.622,7.619-6.976
			c4.235-1.366,7.919-0.803,10.531,0.09c2.101,0.719,4.337-0.565,4.701-2.757c1.272-7.657,5.039-21.716,15.557-21.716
			c9.744,0,15.36,15.159,17.985,25.039c1.562,5.877,5.814,10.658,11.486,12.849c1.295,0.5,2.653,0.978,4.03,1.394
			C182.104,201.927,184.405,207.457,176.195,207.457z"/>
		<path style="fill:#A1C1ED;" d="M480.892,179.611c11.329,0,57.283,0,69.57,0c12.286,0,7.477-5.585,3.738-7.021
			c-2.085-0.801-7.078-2.247-11.086-3.37c-3.197-0.896-5.863-3.153-7.169-6.206c-2.309-5.397-8.06-13.423-21.647-12.093
			c-2.405,0.236-4.75-0.757-6.359-2.559c-3.323-3.724-9.78-9.064-17.793-6.249c-8.88,3.12-10.721,16.888-11.088,23.524
			c-0.113,2.039-1.409,3.809-3.32,4.531c-2.31,0.873-5.085,2.434-5.538,4.974C469.404,179.611,475.626,179.611,480.892,179.611z"/>
		<g>
			<g>
				<polygon style="fill:#FF6026;" points="407.61,66.68 412.735,65.68 409.18,68.874 				"/>
				<path style="fill:#1656BD;" d="M398.003,79.488c0.768-0.973,1.087-2.222,0.961-3.455c-0.384-3.73-0.588-11.442,4.021-12.853
					c6.125-1.875,7.25,10,7.75,15.5s15.625,24.5-24,24.25C386.735,102.93,391.899,87.22,398.003,79.488z"/>
				<path style="fill:#0C3069;" d="M404.763,67.881c0,0.548-0.445,0.993-0.993,0.993s-0.993-0.445-0.993-0.993
					s0.444-0.993,0.993-0.993S404.763,67.333,404.763,67.881z"/>
				<path style="fill:none;stroke:#A1C1ED;stroke-width:0.75;stroke-miterlimit:10;" d="M398.914,77.428
					c0,0,12.835,19.526-11.491,23.518"/>
				<path style="fill:none;stroke:#A1C1ED;stroke-width:0.75;stroke-miterlimit:10;" d="M397.695,79.888
					c0,0,6.022,13.478-9.698,19.489"/>
				
					<line style="fill:none;stroke:#0C3069;stroke-width:0.75;stroke-miterlimit:10;" x1="400.424" y1="101.505" x2="399.86" y2="105.618"/>
				
					<line style="fill:none;stroke:#0C3069;stroke-width:0.75;stroke-miterlimit:10;" x1="404.867" y1="100.27" x2="404.134" y2="105.618"/>
			</g>
			
				<linearGradient id="SVGID_00000032633773902395059380000016113992944451338162_" gradientUnits="userSpaceOnUse" x1="397.2422" y1="99.0626" x2="411.0756" y2="127.2292">
				<stop  offset="0.062" style="stop-color:#FF6026"/>
				<stop  offset="1" style="stop-color:#FF6026;stop-opacity:0"/>
			</linearGradient>
			<path style="fill:url(#SVGID_00000032633773902395059380000016113992944451338162_);" d="M387.424,105.618
				c0,0,22.936,13.438,28.436,11.771c5.5-1.667-3.833-11.771-3.833-11.771H387.424z"/>
		</g>
		<g>
			<ellipse style="fill:#CEDBED;" cx="272.204" cy="432.805" rx="18.906" ry="3.75"/>
			<ellipse style="fill:#CEDBED;" cx="337.443" cy="432.805" rx="18.906" ry="3.75"/>
			<path style="fill:#FF6D6D;" d="M311.394,320.397l16.674,101.75c0,0,3.328,1.25,5.893,0c0,0,7.066-57.25,1.066-77.5l-1.066-24.25
				H311.394z"/>
			
				<linearGradient id="SVGID_00000083049328782920185150000004853790332922344632_" gradientUnits="userSpaceOnUse" x1="322.5623" y1="318.9566" x2="323.6873" y2="332.9566">
				<stop  offset="0" style="stop-color:#F04F4F"/>
				<stop  offset="0.9465" style="stop-color:#F04F4F;stop-opacity:0.0535"/>
				<stop  offset="1" style="stop-color:#F04F4F;stop-opacity:0"/>
			</linearGradient>
			<polygon style="fill:url(#SVGID_00000083049328782920185150000004853790332922344632_);" points="333.962,320.397 
				311.394,320.397 312.274,325.763 334.427,330.976 			"/>
			<path style="fill:none;stroke:#D92727;stroke-width:0.75;stroke-miterlimit:10;" d="M324.675,351.48c0,0,2.054,1.667,6.786-2"/>
			<path style="fill:#FF6D6D;" d="M298.027,320.397l-29,102.306h-5.5c0,0-3.167-53.889,7.667-78.056l4.422-24.25H298.027z"/>
			<path style="fill:#0C3069;" d="M328.068,422.147c0,0-2.366,2.053-2.995,6.752c-0.171,1.281,0.83,2.426,2.122,2.453
				c2.465,0.052,6.355,0.163,8.668,0.378c3.203,0.298,4.808,1.863,12.21,1.176c0.951-0.088,1.237-1.345,0.423-1.844l-14.535-8.915
				H328.068z"/>
			<path style="fill:#0C3069;" d="M263.413,422.147c0,0-2.366,2.053-2.995,6.752c-0.171,1.281,0.83,2.426,2.122,2.453
				c2.465,0.052,6.356,0.163,8.669,0.378c3.203,0.298,4.808,1.863,12.21,1.176c0.951-0.088,1.237-1.345,0.423-1.844l-14.535-8.915
				H263.413z"/>
			<path style="fill:none;stroke:#D92727;stroke-width:0.75;stroke-miterlimit:10;" d="M277.402,346.272c0,0,2.25,3.542,7.875,3.208
				"/>
			
				<linearGradient id="SVGID_00000142867937667006439030000002563156588459963285_" gradientUnits="userSpaceOnUse" x1="274.5806" y1="325.0052" x2="298.0274" y2="325.0052">
				<stop  offset="0" style="stop-color:#F04F4F"/>
				<stop  offset="0.9465" style="stop-color:#F04F4F;stop-opacity:0.0535"/>
				<stop  offset="1" style="stop-color:#F04F4F;stop-opacity:0"/>
			</linearGradient>
			<polygon style="fill:url(#SVGID_00000142867937667006439030000002563156588459963285_);" points="295.415,329.614 
				298.027,320.397 275.617,320.397 274.581,326.077 			"/>
			<path style="fill:#2E4469;" d="M328.194,271.147c0,0,4,4.5,3.167,21c0,0,4.698,18.333,5.099,31.167h-27.599l-3.333-19.5
				l-5.5,19.5h-28.833l6.167-37.667c0,0-1.333-10.667,4.667-17.833L328.194,271.147z"/>
			
				<linearGradient id="SVGID_00000009561145392311741610000005134436392656083098_" gradientUnits="userSpaceOnUse" x1="291.9024" y1="307.48" x2="327.5248" y2="307.48">
				<stop  offset="0" style="stop-color:#000000"/>
				<stop  offset="0.9315" style="stop-color:#000000;stop-opacity:0"/>
			</linearGradient>
			<path style="opacity:0.68;fill:url(#SVGID_00000009561145392311741610000005134436392656083098_);" d="M330.345,323.313
				l-21.318-31.667c-1.375,8.75-3.5,12.167-3.5,12.167l3.333,19.5H330.345z"/>
			<path style="fill:none;stroke:#1E2D45;stroke-width:0.75;stroke-miterlimit:10;" d="M292.79,268.59
				c0,0-0.471,12.056-15.43,17.056"/>
			<path style="fill:none;stroke:#1E2D45;stroke-width:0.75;stroke-miterlimit:10;" d="M324.688,270.893
				c0,0-0.626,10.499,6.773,15.501"/>
			<path style="fill:none;stroke:#1E2D45;stroke-width:0.75;stroke-miterlimit:10;" d="M328.402,289.092
				c0,0,2.104,1.117,2.958,3.055"/>
			<path style="fill:none;stroke:#1E2D45;stroke-width:0.75;stroke-miterlimit:10;" d="M287.361,288.132c0,0-6.417,1.098-9.25,4.015
				"/>
			
				<line style="fill:none;stroke:#1E2D45;stroke-width:0.75;stroke-miterlimit:10;" x1="287.361" y1="291.647" x2="275.616" y2="296.301"/>
			<path style="fill:none;stroke:#1E2D45;stroke-width:0.75;stroke-miterlimit:10;" d="M309.111,278.059
				c0,0,1.916,15.421-3.584,25.754"/>
			<path style="fill:none;stroke:#1E2D45;stroke-width:0.75;stroke-miterlimit:10;" d="M313.194,277.563
				c0,0,2.833,12.333-4.167,14.083"/>
			
				<linearGradient id="SVGID_00000111905735878790811610000000886403912030925699_" gradientUnits="userSpaceOnUse" x1="304.2656" y1="260.4256" x2="305.0989" y2="303.0922">
				<stop  offset="0" style="stop-color:#000000"/>
				<stop  offset="0.9315" style="stop-color:#000000;stop-opacity:0"/>
			</linearGradient>
			<path style="opacity:0.68;fill:url(#SVGID_00000111905735878790811610000000886403912030925699_);" d="M317.027,286.395
				c8.911-1.486,12.346-5.692,13.652-8.381c-0.971-5.157-2.485-6.867-2.485-6.867l-46.167-3.333
				c-1.722,2.057-2.838,4.402-3.557,6.701l6.605-3.118C285.076,271.397,303.527,288.647,317.027,286.395z"/>
			<path style="fill:#FF6D6D;" d="M353.357,290.212c0,0,0.2,3.518-0.336,3.518c-0.535,0-0.716-3.265-0.716-3.265l-0.462,0.111
				c0,0-0.608,4.029-1.233,4.279s-0.083-3.542-0.083-3.542s-1.417,2.958-1.813,2.792c-0.396-0.167,0.574-2.916,0.574-2.916
				s-1.679,2.416-2.012,2.291c-0.333-0.125,0.851-2.012,0.851-2.012l0.587-10.072l2.396,1.375L353.357,290.212z"/>
			<polygon style="fill:#0C3069;" points="356.164,290.429 341.265,294.008 341.265,286.85 356.164,283.272 			"/>
			<polygon style="fill:#1656BD;" points="354.935,290.034 342.233,293.085 342.233,287.567 354.935,284.516 			"/>
			<path style="fill:#FF6D6D;" d="M350.59,284.397c0.083,0.073,0.085,0.06,0.163,0.179l2.248-0.544
				c-0.262-1.77-0.598-2.885-0.598-2.885c-8.75-26.75-19-43.25-19-43.25l-2.25-4.875h-16.25c0,0,16.103,28.19,32.237,47.096
				c0.41,0.481,0.574,1.113,0.445,1.732c-0.317,1.52-0.887,4.491-0.932,6.422c-0.063,2.688,1.313-2,1.875-3.063
				S349.978,283.862,350.59,284.397z"/>
			
				<linearGradient id="SVGID_00000061451059978080538220000012324291762646080138_" gradientUnits="userSpaceOnUse" x1="322.2484" y1="231.2359" x2="340.2483" y2="267.5691">
				<stop  offset="0" style="stop-color:#F04F4F"/>
				<stop  offset="0.9465" style="stop-color:#F04F4F;stop-opacity:0.0535"/>
				<stop  offset="1" style="stop-color:#F04F4F;stop-opacity:0"/>
			</linearGradient>
			<path style="fill:url(#SVGID_00000061451059978080538220000012324291762646080138_);" d="M331.152,233.022h-16.25
				c0,0,7.169,12.546,16.729,26.51c-5.142-18.852,4.823-16.226,4.828-16.224c-1.885-3.523-3.057-5.411-3.057-5.411L331.152,233.022z
				"/>
			<path style="fill:#1656BD;" d="M302.158,194.088c10.119,0,16.869,6.809,18.369,13.934l15.5,26.75h-22.125L302.158,194.088z"/>
			
				<linearGradient id="SVGID_00000168827799990471592370000006742297753734340488_" gradientUnits="userSpaceOnUse" x1="302.1581" y1="214.4299" x2="333.4231" y2="214.4299">
				<stop  offset="0" style="stop-color:#0C3069"/>
				<stop  offset="1" style="stop-color:#0C3069;stop-opacity:0"/>
			</linearGradient>
			<path style="fill:url(#SVGID_00000168827799990471592370000006742297753734340488_);" d="M333.423,230.277L333.423,230.277
				l-12.896-22.255c-1.5-7.125-8.25-13.934-18.369-13.934l11.744,40.684h9.958C323.861,213.73,333.423,230.277,333.423,230.277z"/>
			<path style="fill:#1656BD;" d="M263.865,208.022l9.103-10.749c1.564-1.846,3.842-2.927,6.261-2.964
				c6.149-0.094,17.976-0.267,21.799-0.267c11.5,0,15.671,13.609,17.949,22.718c2.277,9.109,9.109,47.593,9.109,47.593
				s8.784,14.708-8.947,14.708s-34.119-10.248-34.119-10.248s-5.095,2.603-5.496,2.115c-0.401-0.488,1.216-5.957,1.216-5.957
				l-5.891-31.132h-7.822C267.027,233.84,252.615,231.43,263.865,208.022z"/>
			<path style="fill:none;stroke:#0C3069;stroke-width:0.75;stroke-linecap:round;stroke-linejoin:round;stroke-miterlimit:10;" d="
				M274.849,233.84c5.762,0.39,11.262-6.524,10.171-13.068"/>
			<path style="fill:none;stroke:#0C3069;stroke-width:0.75;stroke-linecap:round;stroke-linejoin:round;stroke-miterlimit:10;" d="
				M277.479,195.339c0,0,7.298,3.682,8.298,12.682"/>
			<path style="fill:#FF6D6D;" d="M277.479,175.381c0,0,0.665,3.741-1.452,5.03c-0.698,2.193-7.041,29.853-7.041,29.853
				s3.229,11.203-1.34,22.018c0,0-17.339,5.398-21.466-4.018c-4.127-9.416,18.186-43.08,27.344-50.69c0,0-1.371-5.615-0.871-6.802
				s6.5-5.25,6.5-5.25L277.479,175.381z"/>
			<path style="fill:#FF6D6D;" d="M289.361,165.73l7.25,5.333l-1.42,1.11c0,0,4.42,4.557,3.42,6.057s-2.583,3-2.583,3l2.429,13.331
				c0.441,2.42-1.892,4.418-4.215,3.609l-11.866-4.128l0.873-9.721c0,0-3.555-10.09-3.722-13.257
				C279.361,167.897,284.861,163.647,289.361,165.73z"/>
			
				<linearGradient id="SVGID_00000002342502685605814620000001413609306173161630_" gradientUnits="userSpaceOnUse" x1="284.0596" y1="184.0246" x2="297.3654" y2="184.0246">
				<stop  offset="0" style="stop-color:#F04F4F"/>
				<stop  offset="0.9465" style="stop-color:#F04F4F;stop-opacity:0.0535"/>
				<stop  offset="1" style="stop-color:#F04F4F;stop-opacity:0"/>
			</linearGradient>
			<path style="fill:url(#SVGID_00000002342502685605814620000001413609306173161630_);" d="M284.444,178.313
				c0,0,6.208,5.5,11.583,2.917l1.338,8.506c0,0-8.399-1.892-13.306-9.116L284.444,178.313z"/>
			
				<linearGradient id="SVGID_00000159438282870836206140000014524800901048477312_" gradientUnits="userSpaceOnUse" x1="269.1084" y1="216.4302" x2="253.7082" y2="231.0901">
				<stop  offset="0" style="stop-color:#F04F4F"/>
				<stop  offset="0.9465" style="stop-color:#F04F4F;stop-opacity:0.0535"/>
				<stop  offset="1" style="stop-color:#F04F4F;stop-opacity:0"/>
			</linearGradient>
			<path style="fill:url(#SVGID_00000159438282870836206140000014524800901048477312_);" d="M263.051,225.207
				c1.409,0.604,4.533-1.465,6.965-3.359c0.413-6.562-1.03-11.583-1.03-11.583C267.175,218.373,260.577,224.147,263.051,225.207z"/>
			<path style="fill:#0C3069;" d="M284.361,170.98c0,0,6.167-2.833,9.417-6.167c3.25-3.333,0.566-6.468-4.708-4.833
				c-2.958,0.917-12.292,4.083-11.625,8.75c-3.667,0.917-2.917,4.417-1,6.667c1.917,2.25,6.333,5.917,6.917,9.417l1.083-6.5
				c0,0-2.667-1.583-2.333-3.25c0.333-1.667,2.652-1.25,2.909,0.25L284.361,170.98z"/>
			
				<linearGradient id="SVGID_00000054246255433970162480000001725848339704593055_" gradientUnits="userSpaceOnUse" x1="276.048" y1="221.2869" x2="286.3813" y2="252.9536">
				<stop  offset="0" style="stop-color:#0C3069"/>
				<stop  offset="1" style="stop-color:#0C3069;stop-opacity:0"/>
			</linearGradient>
			<path style="fill:url(#SVGID_00000054246255433970162480000001725848339704593055_);" d="M285.777,238.055
				c1.954-7.167,2.879-13-0.702-14.243c-0.919,10.044-9.992,10.044-9.992,10.044l-0.15,0.432l5.806,30.683
				c5.25-1.417,3.917-4.917,5.549-9.083C287.922,251.722,283.823,245.222,285.777,238.055z"/>
		</g>
		
			<linearGradient id="SVGID_00000084492323386910714900000014560413518728788385_" gradientUnits="userSpaceOnUse" x1="398.6997" y1="405.7217" x2="398.6997" y2="439.3885">
			<stop  offset="0" style="stop-color:#1656BD"/>
			<stop  offset="1" style="stop-color:#A1C1ED;stop-opacity:0"/>
		</linearGradient>
		<polygon style="opacity:0.81;fill:url(#SVGID_00000084492323386910714900000014560413518728788385_);" points="423.506,443.555 
			413.488,443.555 373.893,417.722 383.912,417.722 		"/>
		<g>
			<path style="fill:#CEDBED;" d="M562.406,424.228c0,1.356-34.026,2.455-76,2.455c-41.974,0-76-1.099-76-2.455
				c0-1.356,34.026-2.455,76-2.455C528.38,421.773,562.406,422.872,562.406,424.228z"/>
			<g>
				<g>
					<rect x="426.519" y="266.062" style="fill:#FFFFFF;" width="2.882" height="77.25"/>
					<rect x="447.304" y="266.062" style="fill:#FFFFFF;" width="2.882" height="77.25"/>
				</g>
				<path style="fill:#960A43;" d="M458.507,416.062h-36.594c-2.305,0-4.174-1.869-4.174-4.174v-68.152
					c0-2.305,1.869-4.174,4.174-4.174h36.594c2.305,0,4.174,1.869,4.174,4.174v68.152
					C462.681,414.193,460.813,416.062,458.507,416.062z"/>
				
					<line style="fill:none;stroke:#D90F60;stroke-width:0.7289;stroke-miterlimit:10;" x1="424.906" y1="339.562" x2="424.906" y2="416.062"/>
				<g style="opacity:0.68;">
					
						<linearGradient id="SVGID_00000061459488999240987740000015606530008433642920_" gradientUnits="userSpaceOnUse" x1="431.8228" y1="362.6869" x2="407.8226" y2="362.6869">
						<stop  offset="0" style="stop-color:#000000"/>
						<stop  offset="0.9315" style="stop-color:#000000;stop-opacity:0"/>
					</linearGradient>
					
						<rect x="422.594" y="361.374" style="fill:url(#SVGID_00000061459488999240987740000015606530008433642920_);" width="5.875" height="2.625"/>
					
						<linearGradient id="SVGID_00000074402574194191824580000014083104062845420449_" gradientUnits="userSpaceOnUse" x1="431.8228" y1="395.5619" x2="407.8226" y2="395.5619">
						<stop  offset="0" style="stop-color:#000000"/>
						<stop  offset="0.9315" style="stop-color:#000000;stop-opacity:0"/>
					</linearGradient>
					
						<rect x="422.594" y="394.249" style="fill:url(#SVGID_00000074402574194191824580000014083104062845420449_);" width="5.875" height="2.625"/>
				</g>
				<path style="fill:#D90F60;" d="M474.482,416.062h-36.594c-2.305,0-4.174-1.869-4.174-4.174v-68.152
					c0-2.305,1.869-4.174,4.174-4.174h36.594c2.305,0,4.174,1.869,4.174,4.174v68.152
					C478.656,414.193,476.787,416.062,474.482,416.062z"/>
				
					<line style="fill:none;stroke:#380419;stroke-width:0.7289;stroke-miterlimit:10;" x1="425.531" y1="339.562" x2="425.531" y2="416.062"/>
				<g>
					<rect x="422.594" y="360.062" style="fill:#FFFFFF;" width="5.875" height="2.625"/>
					<rect x="422.594" y="392.937" style="fill:#FFFFFF;" width="5.875" height="2.625"/>
				</g>
				<g style="opacity:0.45;">
					
						<linearGradient id="SVGID_00000062158566742802312480000010668774356045836190_" gradientUnits="userSpaceOnUse" x1="441.7253" y1="328.805" x2="441.7253" y2="452.3834">
						<stop  offset="0" style="stop-color:#000000"/>
						<stop  offset="0.9315" style="stop-color:#000000;stop-opacity:0"/>
					</linearGradient>
					<path style="fill:url(#SVGID_00000062158566742802312480000010668774356045836190_);" d="M441.725,410.013L441.725,410.013
						c-0.82,0-1.484-0.665-1.484-1.484V347.88c0-0.82,0.665-1.484,1.484-1.484l0,0c0.82,0,1.484,0.665,1.484,1.484v60.649
						C443.21,409.349,442.545,410.013,441.725,410.013z"/>
					
						<linearGradient id="SVGID_00000151518500544556490130000011620963337181287086_" gradientUnits="userSpaceOnUse" x1="451.3651" y1="328.805" x2="451.3651" y2="452.3834">
						<stop  offset="0" style="stop-color:#000000"/>
						<stop  offset="0.9315" style="stop-color:#000000;stop-opacity:0"/>
					</linearGradient>
					<path style="fill:url(#SVGID_00000151518500544556490130000011620963337181287086_);" d="M451.365,410.013L451.365,410.013
						c-0.82,0-1.484-0.665-1.484-1.484V347.88c0-0.82,0.665-1.484,1.484-1.484l0,0c0.82,0,1.484,0.665,1.484,1.484v60.649
						C452.849,409.349,452.185,410.013,451.365,410.013z"/>
					
						<linearGradient id="SVGID_00000155125378722815579460000014977802633106211507_" gradientUnits="userSpaceOnUse" x1="461.0049" y1="328.805" x2="461.0049" y2="452.3834">
						<stop  offset="0" style="stop-color:#000000"/>
						<stop  offset="0.9315" style="stop-color:#000000;stop-opacity:0"/>
					</linearGradient>
					<path style="fill:url(#SVGID_00000155125378722815579460000014977802633106211507_);" d="M461.005,410.013L461.005,410.013
						c-0.82,0-1.484-0.665-1.484-1.484V347.88c0-0.82,0.664-1.484,1.484-1.484l0,0c0.82,0,1.484,0.665,1.484,1.484v60.649
						C462.489,409.349,461.825,410.013,461.005,410.013z"/>
					
						<linearGradient id="SVGID_00000175301003446347944530000010198281070874252434_" gradientUnits="userSpaceOnUse" x1="470.6448" y1="328.805" x2="470.6448" y2="452.3834">
						<stop  offset="0" style="stop-color:#000000"/>
						<stop  offset="0.9315" style="stop-color:#000000;stop-opacity:0"/>
					</linearGradient>
					<path style="fill:url(#SVGID_00000175301003446347944530000010198281070874252434_);" d="M470.645,410.013L470.645,410.013
						c-0.82,0-1.484-0.665-1.484-1.484V347.88c0-0.82,0.665-1.484,1.484-1.484l0,0c0.82,0,1.484,0.665,1.484,1.484v60.649
						C472.129,409.349,471.465,410.013,470.645,410.013z"/>
				</g>
				<path style="fill:#09244F;" d="M464.352,420.145c0,2.255-1.828,4.083-4.083,4.083c-2.255,0-4.083-1.828-4.083-4.083
					c0-2.255,1.828-4.083,4.083-4.083C462.523,416.062,464.352,417.89,464.352,420.145z"/>
				<path style="fill:#09244F;" d="M477.905,420.145c0,2.255-1.828,4.083-4.083,4.083c-2.255,0-4.083-1.828-4.083-4.083
					c0-2.255,1.828-4.083,4.083-4.083C476.077,416.062,477.905,417.89,477.905,420.145z"/>
				<rect x="425.531" y="415.895" style="fill:#09244F;" width="48.291" height="2.667"/>
				
					<linearGradient id="SVGID_00000070079520283387871160000006615494153221970879_" gradientUnits="userSpaceOnUse" x1="450.2849" y1="331.055" x2="450.2849" y2="384.0554">
					<stop  offset="0" style="stop-color:#000000"/>
					<stop  offset="0.9315" style="stop-color:#000000;stop-opacity:0"/>
				</linearGradient>
				<path style="opacity:0.43;fill:url(#SVGID_00000070079520283387871160000006615494153221970879_);" d="M474.482,339.562h-15.975
					h-20.619h-15.975l11.8,5.5l44.942,31.625v-32.951C478.656,341.431,476.787,339.562,474.482,339.562z"/>
				<path style="fill:#0F3D85;" d="M429.656,420.145c0,2.255-1.828,4.083-4.083,4.083c-2.255,0-4.083-1.828-4.083-4.083
					c0-2.255,1.828-4.083,4.083-4.083C427.828,416.062,429.656,417.89,429.656,420.145z"/>
				<path style="fill:#0F3D85;" d="M443.21,420.145c0,2.255-1.828,4.083-4.083,4.083c-2.255,0-4.083-1.828-4.083-4.083
					c0-2.255,1.828-4.083,4.083-4.083C441.382,416.062,443.21,417.89,443.21,420.145z"/>
				<path style="fill:#FFA526;stroke:#0C3069;stroke-width:0.3266;stroke-miterlimit:10;" d="M440.71,420.145
					c0,0.875-0.709,1.583-1.583,1.583c-0.874,0-1.583-0.709-1.583-1.583c0-0.874,0.709-1.583,1.583-1.583
					C440.001,418.562,440.71,419.271,440.71,420.145z"/>
				<path style="fill:#FFA526;stroke:#0C3069;stroke-width:0.3266;stroke-miterlimit:10;" d="M427.114,420.145
					c0,0.875-0.709,1.583-1.583,1.583c-0.875,0-1.583-0.709-1.583-1.583c0-0.874,0.709-1.583,1.583-1.583
					C426.405,418.562,427.114,419.271,427.114,420.145z"/>
				<g style="opacity:0.43;">
					
						<linearGradient id="SVGID_00000057141413083014497530000014653114426572297133_" gradientUnits="userSpaceOnUse" x1="427.9602" y1="253.6797" x2="427.9602" y2="295.57">
						<stop  offset="0" style="stop-color:#000000"/>
						<stop  offset="0.9315" style="stop-color:#000000;stop-opacity:0"/>
					</linearGradient>
					<polygon style="fill:url(#SVGID_00000057141413083014497530000014653114426572297133_);" points="429.401,272.435 
						429.401,266.062 426.519,266.062 426.519,271.633 					"/>
					
						<linearGradient id="SVGID_00000133506287960356861290000014425704354342590119_" gradientUnits="userSpaceOnUse" x1="448.7447" y1="253.6796" x2="448.7447" y2="295.57">
						<stop  offset="0" style="stop-color:#000000"/>
						<stop  offset="0.9315" style="stop-color:#000000;stop-opacity:0"/>
					</linearGradient>
					<polygon style="fill:url(#SVGID_00000133506287960356861290000014425704354342590119_);" points="450.186,266.062 
						447.304,266.062 447.304,277.417 450.186,278.219 					"/>
				</g>
				<path style="fill:#960A43;" d="M450.946,263.312h-25.186c-0.777,0-1.407,0.63-1.407,1.407v1.936c0,0.777,0.63,1.407,1.407,1.407
					h4.276c1.362,0,2.735-0.271,3.915-0.953c1.118-0.646,2.676-1.047,4.402-1.047c1.727,0,3.285,0.401,4.403,1.047
					c1.179,0.682,2.552,0.953,3.915,0.953h4.276c0.777,0,1.407-0.63,1.407-1.407v-1.936
					C452.352,263.942,451.723,263.312,450.946,263.312z"/>
			</g>
			<g>
				<polygon style="fill:#0C3069;" points="470.832,311.012 482.035,315.493 461.377,318.596 461.823,311.929 				"/>
				<path style="fill:#FF6D6D;" d="M513.073,326.769c0,0,9.283-0.852,10.833,4.833c3.5,12.833,18,82.083,18,82.083
					s5.169,5.75,9.959,7.75c4.791,2,8.142,1.555,5.966,3.027c-2.176,1.473-15.676-1.527-15.676-1.527l-6.365,0.5l1.115-7.25
					c0,0-4.5-13.75-10-24.75s-15.852-38.5-16.176-46.25C510.406,337.436,513.073,326.769,513.073,326.769z"/>
				
					<linearGradient id="SVGID_00000054950947463752013440000006358987489219670421_" gradientUnits="userSpaceOnUse" x1="510.7028" y1="349.4135" x2="533.0662" y2="349.4135">
					<stop  offset="0" style="stop-color:#F04F4F"/>
					<stop  offset="0.9465" style="stop-color:#F04F4F;stop-opacity:0.0535"/>
					<stop  offset="1" style="stop-color:#F04F4F;stop-opacity:0"/>
				</linearGradient>
				<path style="fill:url(#SVGID_00000054950947463752013440000006358987489219670421_);" d="M533.066,372.103
					c-3.73-17.289-7.574-34.686-9.16-40.501c-1.55-5.685-10.833-4.833-10.833-4.833s-2.667,10.667-2.343,18.417
					c0.125,2.999,1.755,8.96,4.022,15.774C518.649,362.351,525.654,365.52,533.066,372.103z"/>
				<path style="fill:#F04F4F;" d="M518.906,273.853c0,0,1.527,0,1.43,1.083c-0.097,1.083-0.264,7.086-1.43,7.751
					c-1.167,0.666-3.75,1.749-3.75,1.749s2.389,32.306-3.424,36.816c-4.533,3.517-9.964-1.152-12.243-4.233
					c-2.546-3.442-13.583-19.5-13.583-19.5l10.917-8.917l11.25,19.417c0,0,2.787-24.397,4.204-26.147
					c1.417-1.75,3.63-2.77,3.63-2.77S518.149,273.998,518.906,273.853z"/>
				<path style="fill:#CC5050;" d="M518.906,273.853c0,0,1.527,0,1.43,1.083c-0.097,1.083-0.264,7.086-1.43,7.751
					c-1.167,0.666-3.75,1.749-3.75,1.749s2.389,32.306-3.424,36.816c-4.533,3.517-9.964-1.152-12.243-4.233
					c-2.546-3.442-13.583-19.5-13.583-19.5l10.917-8.917l11.25,19.417c0,0,2.787-24.397,4.204-26.147
					c1.417-1.75,3.63-2.77,3.63-2.77S518.149,273.998,518.906,273.853z"/>
				<path style="fill:#FF6D6D;" d="M476.27,314.436c8.261,1.375,37.628,7.313,41.636,11.659c7,7.591,0.25,18.716-5.25,28.091
					c-5.5,9.375-23.75,48.625-23.75,48.625l-1.125,19.375c0,0,3.375,2,1.875,2.25s-4.875-1.25-5.75-3s-0.625-9.875-1.75-12.25
					s-2.375-6.5-2.375-6.5l4.625-3.375c0,0,3.75-14.375,5.5-26.75s6.5-27.338,9.625-29.606h-40.875l1.54-21.144L476.27,314.436z"/>
				
					<linearGradient id="SVGID_00000039105878759854091830000007678708374208763557_" gradientUnits="userSpaceOnUse" x1="458.6561" y1="328.695" x2="488.7635" y2="328.695">
					<stop  offset="0" style="stop-color:#F04F4F"/>
					<stop  offset="0.9465" style="stop-color:#F04F4F;stop-opacity:0.0535"/>
					<stop  offset="1" style="stop-color:#F04F4F;stop-opacity:0"/>
				</linearGradient>
				<path style="fill:url(#SVGID_00000039105878759854091830000007678708374208763557_);" d="M460.197,321.811l-1.54,21.144h12.887
					c3.485-13.572,12.601-22.362,17.221-26.084c-5.279-1.131-9.915-2.005-12.493-2.435L460.197,321.811z"/>
				<path style="fill:#1656BD;" d="M434.906,308.769c0,0-12.034,21.572,7.833,32.333c4,2.167,15.667,1.833,23.333,1.833
					c0,0-2.314-24.625,10.197-28.5l-20.989-3.75L434.906,308.769z"/>
				
					<path style="fill:none;stroke:#0C3069;stroke-width:0.75;stroke-linecap:round;stroke-linejoin:round;stroke-miterlimit:10;" d="
					M470.832,313.464c-6.343,3.555-9.828,11.806-8.176,29.49"/>
				
					<linearGradient id="SVGID_00000079483645038487248010000010955324610252343228_" gradientUnits="userSpaceOnUse" x1="431.3735" y1="314.8301" x2="468.9981" y2="314.8301">
					<stop  offset="0" style="stop-color:#000000"/>
					<stop  offset="0.9315" style="stop-color:#000000;stop-opacity:0"/>
				</linearGradient>
				<path style="opacity:0.45;fill:url(#SVGID_00000079483645038487248010000010955324610252343228_);" d="M468.998,313.137
					l-13.717-2.451l-20.375-1.917c0,0-3.005,5.388-3.533,12.122C443.065,314.164,468.997,313.137,468.998,313.137z"/>
				<path style="fill:#0C3069;" d="M536.906,416.186l-1.115,7.25l6.365-0.5c0,0,13.5,3,15.676,1.527
					c2.176-1.473-1.176-1.027-5.966-3.027c-4.79-2-9.959-7.75-9.959-7.75C538.906,417.436,536.906,416.186,536.906,416.186z"/>
				<path style="fill:#0C3069;" d="M484.406,399.311l-4.625,3.375c0,0,1.25,4.125,2.375,6.5s0.875,10.5,1.75,12.25s4.25,3.25,5.75,3
					s-1.875-2.25-1.875-2.25l1.125-19.375C484.087,402.535,484.406,399.311,484.406,399.311z"/>
				<path style="fill:#FF6D6D;" d="M520.251,263.813c0.056,2.798-1.845,5.998-0.657,6.81s-1.375,9.625-3.063,10.188
					s-4.188-1-8.437,0c-4.25,1-10.438,3.625-10.438,3.625l-6.25-9.923c0,0,10.938-0.077,12-1.827s4.75-11.5,4.75-11.5
					S520.158,259.191,520.251,263.813z"/>
				
					<linearGradient id="SVGID_00000075155040745287157930000004170930380268121992_" gradientUnits="userSpaceOnUse" x1="502.1211" y1="277.2462" x2="512.2763" y2="277.2462">
					<stop  offset="0" style="stop-color:#F04F4F"/>
					<stop  offset="0.9465" style="stop-color:#F04F4F;stop-opacity:0.0535"/>
					<stop  offset="1" style="stop-color:#F04F4F;stop-opacity:0"/>
				</linearGradient>
				<path style="fill:url(#SVGID_00000075155040745287157930000004170930380268121992_);" d="M508.357,271.806l-3.201,0.791
					l-3.035,10.09c1.912-0.7,4.125-1.441,5.973-1.876c1.636-0.385,3.01-0.389,4.181-0.282l0.001-0.001
					C508.146,279.496,506.31,273.704,508.357,271.806z"/>
				<path style="fill:#0C3069;" d="M514.536,255.025c-6.955-2.103-12.595,0.325-14.718,5.068
					c-3.235,7.224,3.181,14.179,3.181,14.179s1.739,0.721,3.033-0.337c0.862-0.706,1.632-1.423,2.326-2.13
					c-0.375-0.096-0.767-0.258-1.076-0.536c-0.851-0.768,0.625-4.958,2.042-4.667c0.935,0.193,1.197,1.67,1.268,2.655
					c1.826-2.35,2.628-4.134,2.628-4.134s3.043,0.631,4.498-1.58l2.534,0.27C520.251,263.813,521.491,257.128,514.536,255.025z"/>
				<path style="fill:#0C3069;" d="M503.565,256.186c0,3.275-2.961,5.931-6.613,5.931s-6.613-2.655-6.613-5.931
					c0-3.275,2.961-5.93,6.613-5.93S503.565,252.911,503.565,256.186z"/>
				<path style="fill:#F7DC42;" d="M493.344,272.998c0,0,9.93,10.313,8.777,12.375s-5.902,5.938-5.902,5.938
					s-2.188,6.563-5.375,8.563s-11.563,2.375-15.438,2.438s-5.25,5-5.25,5s4.863,5.188,1.875,5.188c-4.875,0-24.875,0-32.375,0
					s-9.113-6.665-4.75-7.938c3-0.875,12.069-13.5,22.25-22.292c13.125-11.333,30.083-9.542,32.333-9.271
					C491.739,273.269,492.585,272.194,493.344,272.998z"/>
				<path style="fill:#0C3069;" d="M549.803,294.962l-4.937-1.126c-0.316-0.072-0.459-0.44-0.274-0.706l9.073-13.076
					c0.159-0.229,0.441-0.339,0.714-0.277l4.329,0.987c0.391,0.089,0.568,0.546,0.34,0.876L549.803,294.962z"/>
				<path style="fill:#1656BD;" d="M549.475,292.706l-3.237-0.728c-0.162-0.036-0.236-0.225-0.141-0.362l7.497-10.867
					c0.099-0.143,0.274-0.211,0.443-0.173l3.436,0.773c0.172,0.039,0.25,0.239,0.15,0.384l-7.357,10.664
					C550.09,292.652,549.777,292.774,549.475,292.706z"/>
				<path style="fill:none;stroke:#F04F4F;stroke-width:0.7192;stroke-miterlimit:10;" d="M507.632,328.939
					c0,0,0.72,5.94,5.789,6.841"/>
				<path style="fill:#FF6D6D;" d="M484.989,294.186c0,0-14.667,5.667-17.167,0c-2.5-5.667,11.353-16.939,21.667-16.939
					c8.083,0,11.167,10.606,11.167,10.606l17,27.25l29.063-16.104l-0.64-4.886l3.744,0.823c0,0,1.167-3.083,2.75-4.083
					c0,0,0-3.667,0.417-3.75c0.417-0.083,1.333,3.417,0.75,5.333c-0.583,1.917-3.167,5.917-5.083,8.583
					c-1.917,2.667-24.696,27.29-35.696,24.915C505.357,324.292,484.989,294.186,484.989,294.186z"/>
				
					<linearGradient id="SVGID_00000108280781844022552300000003602350338426457489_" gradientUnits="userSpaceOnUse" x1="467.5509" y1="293.2144" x2="484.9894" y2="293.2144">
					<stop  offset="0" style="stop-color:#F04F4F"/>
					<stop  offset="0.9465" style="stop-color:#F04F4F;stop-opacity:0.0535"/>
					<stop  offset="1" style="stop-color:#F04F4F;stop-opacity:0"/>
				</linearGradient>
				<path style="fill:url(#SVGID_00000108280781844022552300000003602350338426457489_);" d="M467.551,293.077
					c0.034,0.395,0.121,0.767,0.272,1.108c2.5,5.667,17.167,0,17.167,0C482.906,290.936,471.695,286.6,467.551,293.077z"/>
				<path style="fill:none;stroke:#F04F4F;stroke-width:0.7192;stroke-miterlimit:10;" d="M506.288,321.189
					c0,0,8.306,1.874,11.171,4.495"/>
			</g>
		</g>
	</g>
</g>
<g id="DESIGNED_BY_FREEPIK">
	<g>
		<g id="XMLID_319_">
			<g id="XMLID_338_">
				<path id="XMLID_346_" style="fill:#1D262D;" d="M385.104,465.465c-0.432,0.443-0.803,0.931-1.108,1.453l-0.465-0.241
					c-0.067-0.298-0.349-0.503-0.659-0.466c-0.331,0.039-0.568,0.339-0.529,0.67s0.339,0.568,0.67,0.529
					c0.065-0.008,0.127-0.026,0.184-0.052l0.451,0.234c-0.251,0.554-0.433,1.139-0.539,1.744l0.746,0.132
					c0.23-1.306,0.85-2.507,1.792-3.473L385.104,465.465z"/>
				<path id="XMLID_345_" style="fill:#1D262D;" d="M390.592,463.163c-0.171,0-0.341,0.006-0.51,0.017l-0.074-0.626
					c0.188-0.149,0.296-0.389,0.266-0.645c-0.046-0.393-0.402-0.674-0.795-0.628s-0.674,0.402-0.628,0.795
					c0.03,0.254,0.189,0.461,0.405,0.564l0.073,0.624c-0.714,0.116-1.403,0.332-2.06,0.646l0.327,0.684
					c0.934-0.447,1.942-0.673,2.995-0.673c0.496,0,0.993,0.053,1.475,0.158l0.161-0.741
					C391.693,463.222,391.142,463.163,390.592,463.163z"/>
				<path id="XMLID_344_" style="fill:#1D262D;" d="M397.194,465.711c0.331-0.04,0.566-0.341,0.525-0.672
					c-0.04-0.331-0.341-0.566-0.672-0.526c-0.309,0.038-0.535,0.304-0.53,0.609l-0.416,0.363c-0.418-0.43-0.89-0.813-1.408-1.139
					l-0.404,0.641c1.134,0.715,2.021,1.726,2.563,2.925l0.691-0.313c-0.251-0.554-0.568-1.072-0.942-1.545l0.402-0.351
					C397.065,465.716,397.129,465.719,397.194,465.711z"/>
				<path id="XMLID_343_" style="fill:#1D262D;" d="M390.044,473.372c-0.386,0.023-0.775,0.035-1.157,0.035
					c-0.88,0-1.733-0.061-2.478-0.179c-0.39-0.062-0.846-0.155-1.27-0.292c1.046,1.861,3.069,3.125,5.388,3.125
					c2.855,0,5.262-1.916,5.95-4.504c-0.682,0.449-1.505,0.825-2.459,1.123C392.839,473.047,391.464,473.286,390.044,473.372z"/>
				<path id="XMLID_339_" style="fill:#1D262D;" d="M390.592,464.68c-3.352,0-6.08,2.666-6.08,5.943
					c0,0.426,0.046,0.849,0.137,1.261c0.674,0.483,2.706,0.89,5.348,0.731c2.879-0.173,5.297-0.957,6.672-2.159
					c-0.005-0.195-0.021-0.39-0.045-0.582C396.244,466.913,393.65,464.68,390.592,464.68z M388.432,471.194
					c-1.02,0-1.85-0.83-1.85-1.85c0-1.02,0.83-1.85,1.85-1.85c1.02,0,1.85,0.83,1.85,1.85
					C390.282,470.365,389.452,471.194,388.432,471.194z M393.17,470.286c-0.75,0-1.36-0.61-1.36-1.36s0.61-1.361,1.36-1.361
					c0.75,0,1.361,0.61,1.361,1.361S393.92,470.286,393.17,470.286z"/>
			</g>
			<path id="XMLID_336_" style="fill:#1D262D;" d="M406.595,466.547c-0.295-0.116-0.806-0.309-1.382-0.237
				c-0.551,0.069-0.844,0.341-0.844,1.007v0.866h2.228v1.717h-2.228v5.455h-1.932v-5.455h-1.34v-1.717h1.34v-0.888
				c0-1.68,0.896-2.783,2.568-2.783c0.642,0,1.157,0.122,1.59,0.308L406.595,466.547z"/>
			<path id="XMLID_334_" style="fill:#1D262D;" d="M411.298,469.879c-0.177-0.03-0.358-0.046-0.526-0.046
				c-0.896,0-1.51,0.548-1.51,1.614v3.908h-1.932v-7.172h1.873v0.785c0.451-0.673,1.14-0.977,2.021-0.977
				c0.414,0,0.848,0.128,1.094,0.337L411.298,469.879z"/>
			<path id="XMLID_331_" style="fill:#1D262D;" d="M418.965,471.757c0,0.222-0.015,0.489-0.037,0.651h-5.085
				c0.207,1.036,0.933,1.488,1.843,1.488c0.622,0,1.295-0.252,1.813-0.688l1.132,1.243c-0.814,0.748-1.85,1.088-3.057,1.088
				c-2.198,0-3.723-1.495-3.723-3.753c0-2.258,1.48-3.797,3.627-3.797C417.544,467.99,418.958,469.522,418.965,471.757z
				 M413.851,471.091h3.175c-0.177-0.918-0.733-1.436-1.562-1.436C414.554,469.655,414.021,470.203,413.851,471.091z"/>
			<path id="XMLID_328_" style="fill:#1D262D;" d="M426.618,471.757c0,0.222-0.015,0.489-0.037,0.651h-5.085
				c0.207,1.036,0.932,1.488,1.843,1.488c0.622,0,1.295-0.252,1.813-0.688l1.132,1.243c-0.814,0.748-1.85,1.088-3.057,1.088
				c-2.198,0-3.723-1.495-3.723-3.753c0-2.258,1.48-3.797,3.627-3.797C425.197,467.99,426.611,469.522,426.618,471.757z
				 M421.504,471.091h3.175c-0.178-0.918-0.733-1.436-1.562-1.436C422.207,469.655,421.674,470.203,421.504,471.091z"/>
			<path id="XMLID_325_" style="fill:#1D262D;" d="M434.964,471.764c0,2.154-1.495,3.775-3.471,3.775
				c-0.962,0-1.643-0.378-2.109-0.933v3.708h-1.924v-10.133h1.887v0.792c0.466-0.585,1.155-0.984,2.139-0.984
				C433.469,467.99,434.964,469.61,434.964,471.764z M429.287,471.764c0,1.132,0.747,1.976,1.843,1.976
				c1.14,0,1.85-0.881,1.85-1.976c0-1.095-0.71-1.976-1.85-1.976C430.035,469.788,429.287,470.632,429.287,471.764z"/>
			<path id="XMLID_322_" style="fill:#1D262D;" d="M438.068,465.836c0,0.696-0.54,1.229-1.236,1.229
				c-0.696,0-1.229-0.533-1.229-1.229c0-0.696,0.533-1.243,1.229-1.243C437.527,464.592,438.068,465.14,438.068,465.836z
				 M437.809,475.354h-1.932v-7.172h1.932V475.354z"/>
			<path id="XMLID_320_" style="fill:#1D262D;" d="M441.032,470.736l2.702-2.554h2.368l-3.479,3.375l3.501,3.797h-2.376
				l-2.716-2.901v2.901H439.1v-10.658h1.932V470.736z"/>
		</g>
		<g>
			<path style="fill:#1D262D;" d="M309.412,475.289v-1.055c-0.527,0.718-1.391,1.23-2.387,1.23c-1.846,0-3.149-1.406-3.149-3.706
				c0-2.256,1.289-3.721,3.149-3.721c0.952,0,1.816,0.469,2.387,1.245v-3.765h1.099v9.77H309.412z M309.412,473.37v-3.208
				c-0.395-0.615-1.245-1.143-2.124-1.143c-1.421,0-2.27,1.172-2.27,2.739c0,1.567,0.85,2.724,2.27,2.724
				C308.168,474.483,309.017,473.986,309.412,473.37z"/>
			<path style="fill:#1D262D;" d="M311.932,471.744c0-2.051,1.465-3.706,3.486-3.706c2.139,0,3.398,1.67,3.398,3.794v0.279h-5.727
				c0.088,1.333,1.026,2.446,2.549,2.446c0.805,0,1.626-0.322,2.182-0.894l0.527,0.718c-0.703,0.703-1.655,1.084-2.812,1.084
				C313.44,475.465,311.932,473.956,311.932,471.744z M315.404,468.947c-1.509,0-2.256,1.274-2.315,2.358h4.643
				C317.718,470.25,317.015,468.947,315.404,468.947z"/>
			<path style="fill:#1D262D;" d="M319.607,474.351l0.571-0.791c0.469,0.542,1.362,1.011,2.329,1.011c1.084,0,1.67-0.513,1.67-1.216
				c0-1.714-4.38-0.659-4.38-3.281c0-1.098,0.952-2.036,2.636-2.036c1.201,0,2.051,0.454,2.622,1.026l-0.513,0.762
				c-0.424-0.513-1.201-0.894-2.109-0.894c-0.967,0-1.567,0.483-1.567,1.113c0,1.552,4.38,0.527,4.38,3.281
				c0,1.187-0.952,2.138-2.783,2.138C321.306,475.465,320.325,475.113,319.607,474.351z"/>
			<path style="fill:#1D262D;" d="M326.477,466.471c0-0.41,0.337-0.747,0.732-0.747c0.41,0,0.747,0.337,0.747,0.747
				c0,0.41-0.337,0.732-0.747,0.732C326.814,467.203,326.477,466.881,326.477,466.471z M326.667,475.289v-7.075h1.099v7.075H326.667
				z"/>
			<path style="fill:#1D262D;" d="M329.582,477.105l0.556-0.82c0.586,0.703,1.289,0.967,2.3,0.967c1.172,0,2.27-0.571,2.27-2.124
				v-1.011c-0.513,0.718-1.377,1.26-2.373,1.26c-1.845,0-3.149-1.377-3.149-3.662c0-2.27,1.289-3.677,3.149-3.677
				c0.952,0,1.802,0.469,2.373,1.245v-1.069h1.099v6.87c0,2.344-1.641,3.076-3.369,3.076
				C331.237,478.16,330.417,477.926,329.582,477.105z M334.709,473.253v-3.091c-0.381-0.615-1.23-1.143-2.109-1.143
				c-1.421,0-2.27,1.128-2.27,2.695c0,1.553,0.849,2.695,2.27,2.695C333.478,474.41,334.328,473.868,334.709,473.253z"/>
			<path style="fill:#1D262D;" d="M342.413,475.289v-4.629c0-1.245-0.63-1.641-1.582-1.641c-0.865,0-1.685,0.527-2.095,1.099v5.17
				h-1.099v-7.075h1.099v1.025c0.498-0.586,1.465-1.201,2.519-1.201c1.48,0,2.256,0.747,2.256,2.285v4.966H342.413z"/>
			<path style="fill:#1D262D;" d="M344.932,471.744c0-2.051,1.465-3.706,3.486-3.706c2.138,0,3.398,1.67,3.398,3.794v0.279h-5.727
				c0.088,1.333,1.025,2.446,2.549,2.446c0.806,0,1.626-0.322,2.183-0.894l0.527,0.718c-0.703,0.703-1.655,1.084-2.812,1.084
				C346.441,475.465,344.932,473.956,344.932,471.744z M348.404,468.947c-1.509,0-2.256,1.274-2.314,2.358h4.643
				C350.718,470.25,350.015,468.947,348.404,468.947z"/>
			<path style="fill:#1D262D;" d="M358.35,475.289v-1.055c-0.527,0.718-1.392,1.23-2.388,1.23c-1.845,0-3.149-1.406-3.149-3.706
				c0-2.256,1.289-3.721,3.149-3.721c0.952,0,1.817,0.469,2.388,1.245v-3.765h1.098v9.77H358.35z M358.35,473.37v-3.208
				c-0.396-0.615-1.245-1.143-2.124-1.143c-1.421,0-2.27,1.172-2.27,2.739c0,1.567,0.849,2.724,2.27,2.724
				C357.105,474.483,357.954,473.986,358.35,473.37z"/>
			<path style="fill:#1D262D;" d="M364.692,475.289v-9.77h1.099v3.765c0.572-0.776,1.421-1.245,2.388-1.245
				c1.845,0,3.149,1.465,3.149,3.721c0,2.299-1.304,3.706-3.149,3.706c-0.996,0-1.86-0.513-2.388-1.23v1.055H364.692z
				 M367.9,474.483c1.436,0,2.286-1.157,2.286-2.724c0-1.568-0.85-2.739-2.286-2.739c-0.864,0-1.728,0.527-2.109,1.143v3.208
				C366.171,473.986,367.036,474.483,367.9,474.483z"/>
			<path style="fill:#1D262D;" d="M372.529,477.061c0.161,0.073,0.425,0.117,0.601,0.117c0.483,0,0.806-0.161,1.055-0.747
				l0.469-1.069l-2.959-7.148h1.187l2.358,5.8l2.344-5.8h1.201l-3.545,8.51c-0.425,1.025-1.143,1.421-2.08,1.435
				c-0.234,0-0.601-0.044-0.806-0.103L372.529,477.061z"/>
		</g>
	</g>
</g>
</svg>
